<mxfile host="Electron" agent="Mozilla/5.0 (Windows NT 10.0; Win64; x64) AppleWebKit/537.36 (KHTML, like Gecko) draw.io/28.2.5 Chrome/138.0.7204.251 Electron/37.6.1 Safari/537.36" version="28.2.5">
  <diagram name="Page-1" id="Ryry-U9B4DvGZV-rxXE7">
    <mxGraphModel dx="1042" dy="626" grid="1" gridSize="10" guides="1" tooltips="1" connect="1" arrows="1" fold="1" page="1" pageScale="1" pageWidth="850" pageHeight="1100" background="#ffffff" math="0" shadow="0">
      <root>
        <mxCell id="0" />
        <mxCell id="1" parent="0" />
        <mxCell id="_e3UKxDo-f3Gyc2yeRuj-3" value="" style="group" parent="1" vertex="1" connectable="0">
          <mxGeometry x="120" y="190" width="120" height="80" as="geometry" />
        </mxCell>
        <mxCell id="_e3UKxDo-f3Gyc2yeRuj-1" value="crm_cust_info" style="rounded=1;whiteSpace=wrap;html=1;fillColor=#066262;" parent="_e3UKxDo-f3Gyc2yeRuj-3" vertex="1">
          <mxGeometry width="120" height="20" as="geometry" />
        </mxCell>
        <mxCell id="_e3UKxDo-f3Gyc2yeRuj-2" value="&lt;font style=&quot;color: rgb(0, 0, 0);&quot;&gt;cust_id&lt;br&gt;prd_key&lt;/font&gt;" style="rounded=1;whiteSpace=wrap;html=1;strokeColor=#CCCCCC;fillColor=#E6E6E6;" parent="_e3UKxDo-f3Gyc2yeRuj-3" vertex="1">
          <mxGeometry y="20" width="120" height="60" as="geometry" />
        </mxCell>
        <mxCell id="_e3UKxDo-f3Gyc2yeRuj-4" value="" style="group" parent="1" vertex="1" connectable="0">
          <mxGeometry x="350" y="280" width="120" height="80" as="geometry" />
        </mxCell>
        <mxCell id="_e3UKxDo-f3Gyc2yeRuj-5" value="&lt;font style=&quot;color: rgb(0, 0, 0);&quot;&gt;crm_cust_info&lt;/font&gt;" style="rounded=1;whiteSpace=wrap;html=1;fillColor=#10FFFF;" parent="_e3UKxDo-f3Gyc2yeRuj-4" vertex="1">
          <mxGeometry width="120" height="20" as="geometry" />
        </mxCell>
        <mxCell id="_e3UKxDo-f3Gyc2yeRuj-6" value="&lt;font style=&quot;color: rgb(0, 0, 0);&quot;&gt;cst_id&lt;/font&gt;" style="rounded=1;whiteSpace=wrap;html=1;strokeColor=#CCCCCC;fillColor=#E6E6E6;" parent="_e3UKxDo-f3Gyc2yeRuj-4" vertex="1">
          <mxGeometry y="20" width="120" height="60" as="geometry" />
        </mxCell>
        <mxCell id="_e3UKxDo-f3Gyc2yeRuj-10" value="" style="group" parent="1" vertex="1" connectable="0">
          <mxGeometry x="560" y="220" width="120" height="80" as="geometry" />
        </mxCell>
        <mxCell id="_e3UKxDo-f3Gyc2yeRuj-11" value="&lt;font style=&quot;color: rgb(0, 0, 0);&quot;&gt;erp_cust_az12&lt;/font&gt;" style="rounded=1;whiteSpace=wrap;html=1;fillColor=#FFFF66;" parent="_e3UKxDo-f3Gyc2yeRuj-10" vertex="1">
          <mxGeometry width="120" height="20" as="geometry" />
        </mxCell>
        <mxCell id="_e3UKxDo-f3Gyc2yeRuj-12" value="&lt;font style=&quot;color: rgb(0, 0, 0);&quot;&gt;cid&lt;/font&gt;" style="rounded=1;whiteSpace=wrap;html=1;strokeColor=#CCCCCC;fillColor=#E6E6E6;" parent="_e3UKxDo-f3Gyc2yeRuj-10" vertex="1">
          <mxGeometry y="20" width="120" height="60" as="geometry" />
        </mxCell>
        <mxCell id="_e3UKxDo-f3Gyc2yeRuj-16" value="" style="group" parent="1" vertex="1" connectable="0">
          <mxGeometry x="350" y="120" width="120" height="80" as="geometry" />
        </mxCell>
        <mxCell id="_e3UKxDo-f3Gyc2yeRuj-17" value="&lt;span style=&quot;color: rgb(0, 0, 0);&quot;&gt;crm_prd_info&lt;/span&gt;" style="rounded=1;whiteSpace=wrap;html=1;fillColor=#10FFFF;" parent="_e3UKxDo-f3Gyc2yeRuj-16" vertex="1">
          <mxGeometry width="120" height="20" as="geometry" />
        </mxCell>
        <mxCell id="_e3UKxDo-f3Gyc2yeRuj-18" value="&lt;font style=&quot;color: rgb(0, 0, 0);&quot;&gt;prd_id&lt;/font&gt;" style="rounded=1;whiteSpace=wrap;html=1;strokeColor=#CCCCCC;fillColor=#E6E6E6;" parent="_e3UKxDo-f3Gyc2yeRuj-16" vertex="1">
          <mxGeometry y="20" width="120" height="60" as="geometry" />
        </mxCell>
        <mxCell id="_e3UKxDo-f3Gyc2yeRuj-19" value="" style="group" parent="1" vertex="1" connectable="0">
          <mxGeometry x="560" y="370" width="120" height="80" as="geometry" />
        </mxCell>
        <mxCell id="_e3UKxDo-f3Gyc2yeRuj-20" value="&lt;font style=&quot;color: rgb(0, 0, 0);&quot;&gt;erp_loc_a101&lt;/font&gt;" style="rounded=1;whiteSpace=wrap;html=1;fillColor=#FFFF66;" parent="_e3UKxDo-f3Gyc2yeRuj-19" vertex="1">
          <mxGeometry width="120" height="20" as="geometry" />
        </mxCell>
        <mxCell id="_e3UKxDo-f3Gyc2yeRuj-21" value="&lt;font style=&quot;color: rgb(0, 0, 0);&quot;&gt;cid&lt;/font&gt;" style="rounded=1;whiteSpace=wrap;html=1;strokeColor=#CCCCCC;fillColor=#E6E6E6;" parent="_e3UKxDo-f3Gyc2yeRuj-19" vertex="1">
          <mxGeometry y="20" width="120" height="60" as="geometry" />
        </mxCell>
        <mxCell id="_e3UKxDo-f3Gyc2yeRuj-22" value="erp_px_cat_g1v2" style="group" parent="1" vertex="1" connectable="0">
          <mxGeometry x="570" y="50" width="120" height="80" as="geometry" />
        </mxCell>
        <mxCell id="_e3UKxDo-f3Gyc2yeRuj-23" value="&lt;font style=&quot;color: rgb(0, 0, 0);&quot;&gt;erp_px_cat_g1v2&lt;/font&gt;" style="rounded=1;whiteSpace=wrap;html=1;fillColor=#FFFF66;" parent="_e3UKxDo-f3Gyc2yeRuj-22" vertex="1">
          <mxGeometry width="120" height="20" as="geometry" />
        </mxCell>
        <mxCell id="_e3UKxDo-f3Gyc2yeRuj-24" value="&lt;font style=&quot;color: rgb(0, 0, 0);&quot;&gt;prod_id&lt;/font&gt;" style="rounded=1;whiteSpace=wrap;html=1;strokeColor=#CCCCCC;fillColor=#E6E6E6;" parent="_e3UKxDo-f3Gyc2yeRuj-22" vertex="1">
          <mxGeometry y="20" width="120" height="60" as="geometry" />
        </mxCell>
        <mxCell id="_e3UKxDo-f3Gyc2yeRuj-26" value="" style="endArrow=classic;html=1;rounded=0;exitX=1;exitY=0.5;exitDx=0;exitDy=0;entryX=0;entryY=0.5;entryDx=0;entryDy=0;strokeColor=#000000;" parent="1" source="_e3UKxDo-f3Gyc2yeRuj-2" target="_e3UKxDo-f3Gyc2yeRuj-18" edge="1">
          <mxGeometry width="50" height="50" relative="1" as="geometry">
            <mxPoint x="410" y="310" as="sourcePoint" />
            <mxPoint x="460" y="260" as="targetPoint" />
            <Array as="points">
              <mxPoint x="310" y="170" />
            </Array>
          </mxGeometry>
        </mxCell>
        <mxCell id="_e3UKxDo-f3Gyc2yeRuj-28" value="" style="endArrow=classic;html=1;rounded=0;exitX=1;exitY=0.5;exitDx=0;exitDy=0;entryX=0;entryY=0.5;entryDx=0;entryDy=0;strokeColor=#000000;" parent="1" source="_e3UKxDo-f3Gyc2yeRuj-2" target="_e3UKxDo-f3Gyc2yeRuj-6" edge="1">
          <mxGeometry width="50" height="50" relative="1" as="geometry">
            <mxPoint x="250" y="360" as="sourcePoint" />
            <mxPoint x="300" y="310" as="targetPoint" />
            <Array as="points">
              <mxPoint x="310" y="330" />
            </Array>
          </mxGeometry>
        </mxCell>
        <mxCell id="_e3UKxDo-f3Gyc2yeRuj-29" value="" style="endArrow=classic;html=1;rounded=0;exitX=1;exitY=0.5;exitDx=0;exitDy=0;entryX=0;entryY=0.5;entryDx=0;entryDy=0;strokeColor=#000000;" parent="1" source="_e3UKxDo-f3Gyc2yeRuj-6" target="_e3UKxDo-f3Gyc2yeRuj-12" edge="1">
          <mxGeometry width="50" height="50" relative="1" as="geometry">
            <mxPoint x="460" y="390" as="sourcePoint" />
            <mxPoint x="570" y="320" as="targetPoint" />
            <Array as="points">
              <mxPoint x="510" y="270" />
            </Array>
          </mxGeometry>
        </mxCell>
        <mxCell id="_e3UKxDo-f3Gyc2yeRuj-30" value="" style="endArrow=classic;html=1;rounded=0;exitX=1;exitY=0.5;exitDx=0;exitDy=0;entryX=0;entryY=0.367;entryDx=0;entryDy=0;strokeColor=#000000;entryPerimeter=0;" parent="1" source="_e3UKxDo-f3Gyc2yeRuj-6" target="_e3UKxDo-f3Gyc2yeRuj-21" edge="1">
          <mxGeometry width="50" height="50" relative="1" as="geometry">
            <mxPoint x="510" y="430" as="sourcePoint" />
            <mxPoint x="600" y="370" as="targetPoint" />
            <Array as="points">
              <mxPoint x="510" y="412" />
            </Array>
          </mxGeometry>
        </mxCell>
        <mxCell id="_e3UKxDo-f3Gyc2yeRuj-31" value="" style="endArrow=classic;html=1;rounded=0;entryX=0;entryY=0.5;entryDx=0;entryDy=0;strokeColor=#000000;" parent="1" target="_e3UKxDo-f3Gyc2yeRuj-24" edge="1">
          <mxGeometry width="50" height="50" relative="1" as="geometry">
            <mxPoint x="470" y="170" as="sourcePoint" />
            <mxPoint x="610" y="180" as="targetPoint" />
            <Array as="points">
              <mxPoint x="510" y="100" />
            </Array>
          </mxGeometry>
        </mxCell>
      </root>
    </mxGraphModel>
  </diagram>
</mxfile>
